<svg width="110" height="34" viewBox="0 0 110 34" fill="none" xmlns="http://www.w3.org/2000/svg">
<circle cx="17" cy="17" r="16" fill="#BE185D" stroke="white" stroke-width="2"/>
<path d="M14.4503 16.15H19.5503C20.0178 16.15 20.4003 16.5325 20.4003 17C20.4003 17.4675 20.0178 17.85 19.5503 17.85H14.4503C13.9828 17.85 13.6003 17.4675 13.6003 17C13.6003 16.5325 13.9828 16.15 14.4503 16.15ZM24.5908 17C25.1178 17 25.5003 16.4985 25.3813 15.9885C25.1537 15.0647 24.6231 14.2437 23.8744 13.6567C23.1256 13.0697 22.2017 12.7505 21.2503 12.75H18.6578C18.2158 12.75 17.8503 13.1155 17.8503 13.5575C17.8503 13.9995 18.2158 14.365 18.6578 14.365H21.2503C22.4828 14.365 23.5198 15.215 23.8088 16.354C23.9023 16.728 24.2083 17 24.5908 17ZM10.1663 16.473C10.4043 15.2235 11.5773 14.365 12.8523 14.365H15.3428C15.7848 14.365 16.1503 13.9995 16.1503 13.5575C16.1503 13.1155 15.7848 12.75 15.3428 12.75H12.9373C10.7188 12.75 8.73828 14.3735 8.52578 16.5835C8.46702 17.1736 8.53252 17.7695 8.71806 18.3327C8.90361 18.8959 9.20509 19.4141 9.60307 19.8537C10.0011 20.2933 10.4867 20.6447 11.0288 20.8852C11.5708 21.1257 12.1573 21.25 12.7503 21.25H15.3428C15.7848 21.25 16.1503 20.8845 16.1503 20.4425C16.1503 20.0005 15.7848 19.635 15.3428 19.635H12.7503C12.3599 19.6338 11.9745 19.5461 11.622 19.3783C11.2695 19.2104 10.9586 18.9666 10.7115 18.6643C10.4644 18.362 10.2874 18.0087 10.1931 17.6298C10.0989 17.2509 10.0897 16.8558 10.1663 16.473ZM22.1003 17C21.6328 17 21.2503 17.3825 21.2503 17.85V19.55H19.5503C19.0828 19.55 18.7003 19.9325 18.7003 20.4C18.7003 20.8675 19.0828 21.25 19.5503 21.25H21.2503V22.95C21.2503 23.4175 21.6328 23.8 22.1003 23.8C22.5678 23.8 22.9503 23.4175 22.9503 22.95V21.25H24.6503C25.1178 21.25 25.5003 20.8675 25.5003 20.4C25.5003 19.9325 25.1178 19.55 24.6503 19.55H22.9503V17.85C22.9503 17.3825 22.5678 17 22.1003 17Z" fill="white"/>
<path d="M40.24 26C40.08 26 40 25.92 40 25.76V9.44001C40 9.28001 40.08 9.20001 40.24 9.20001H41.464C41.624 9.20001 41.704 9.28001 41.704 9.44001V24.416C41.704 24.48 41.736 24.512 41.8 24.512H47.296C47.456 24.512 47.536 24.592 47.536 24.752V25.76C47.536 25.92 47.456 26 47.296 26H40.24Z" fill="white"/>
<path d="M49.6836 26C49.5236 26 49.4436 25.92 49.4436 25.76V14.096C49.4436 13.936 49.5236 13.856 49.6836 13.856H50.9076C51.0676 13.856 51.1476 13.936 51.1476 14.096V25.76C51.1476 25.92 51.0676 26 50.9076 26H49.6836Z" fill="white"/>
<path d="M58.5638 13.688C59.5398 13.688 60.2918 14.024 60.8198 14.696C61.3638 15.368 61.6358 16.304 61.6358 17.504V25.76C61.6358 25.92 61.5558 26 61.3958 26H60.1718C60.0118 26 59.9318 25.92 59.9318 25.76V17.648C59.9318 16.864 59.7558 16.256 59.4038 15.824C59.0678 15.392 58.5958 15.176 57.9878 15.176C57.3478 15.176 56.8438 15.408 56.4758 15.872C56.1238 16.336 55.9478 16.968 55.9478 17.768V25.76C55.9478 25.92 55.8678 26 55.7078 26H54.4838C54.3238 26 54.2438 25.92 54.2438 25.76V14.096C54.2438 13.936 54.3238 13.856 54.4838 13.856H55.7078C55.8678 13.856 55.9478 13.936 55.9478 14.096V14.864C55.9478 14.896 55.9638 14.92 55.9958 14.936C56.0278 14.952 56.0518 14.936 56.0678 14.888C56.3558 14.488 56.7158 14.192 57.1478 14C57.5958 13.792 58.0678 13.688 58.5638 13.688Z" fill="white"/>
<path d="M64.6557 26C64.4957 26 64.4157 25.92 64.4157 25.76V9.44001C64.4157 9.28001 64.4957 9.20001 64.6557 9.20001H65.8797C66.0397 9.20001 66.1197 9.28001 66.1197 9.44001V19.088C66.1197 19.12 66.1357 19.144 66.1677 19.16C66.1997 19.176 66.2237 19.168 66.2397 19.136L69.8397 14C69.9037 13.904 69.9997 13.856 70.1277 13.856H71.3757C71.4717 13.856 71.5357 13.888 71.5677 13.952C71.5997 14 71.5837 14.064 71.5197 14.144L69.1437 17.552C69.0957 17.6 69.0877 17.648 69.1197 17.696L71.9517 25.736L71.9757 25.832C71.9757 25.944 71.9037 26 71.7597 26H70.4877C70.3437 26 70.2477 25.936 70.1997 25.808L68.0637 19.136C68.0477 19.04 67.9997 19.032 67.9197 19.112L66.1677 21.608C66.1357 21.64 66.1197 21.68 66.1197 21.728V25.76C66.1197 25.92 66.0397 26 65.8797 26H64.6557Z" fill="white"/>
<path d="M80.5742 9.44001C80.5742 9.28001 80.6543 9.20001 80.8143 9.20001H82.0382C82.1982 9.20001 82.2783 9.28001 82.2783 9.44001V25.76C82.2783 25.92 82.1982 26 82.0382 26H80.8143C80.6543 26 80.5742 25.92 80.5742 25.76V18.44C80.5742 18.376 80.5422 18.344 80.4782 18.344H76.2062C76.1422 18.344 76.1102 18.376 76.1102 18.44V25.76C76.1102 25.92 76.0303 26 75.8703 26H74.6463C74.4863 26 74.4062 25.92 74.4062 25.76V9.44001C74.4062 9.28001 74.4863 9.20001 74.6463 9.20001H75.8703C76.0303 9.20001 76.1102 9.28001 76.1102 9.44001V16.736C76.1102 16.8 76.1422 16.832 76.2062 16.832H80.4782C80.5422 16.832 80.5742 16.8 80.5742 16.736V9.44001Z" fill="white"/>
<path d="M92.7106 20.336C92.7106 20.496 92.6306 20.576 92.4706 20.576H86.9986C86.9346 20.576 86.9026 20.608 86.9026 20.672V22.424C86.9026 23.096 87.0866 23.648 87.4546 24.08C87.8386 24.496 88.3346 24.704 88.9426 24.704C89.4546 24.704 89.8866 24.552 90.2386 24.248C90.6066 23.928 90.8466 23.52 90.9586 23.024C91.0066 22.88 91.0946 22.808 91.2226 22.808L92.4226 22.856C92.4866 22.856 92.5426 22.88 92.5906 22.928C92.6386 22.976 92.6546 23.04 92.6386 23.12C92.5106 24.064 92.1186 24.816 91.4626 25.376C90.8226 25.92 89.9826 26.192 88.9426 26.192C87.8066 26.192 86.8946 25.856 86.2066 25.184C85.5346 24.512 85.1986 23.624 85.1986 22.52V17.336C85.1986 16.248 85.5346 15.368 86.2066 14.696C86.8946 14.008 87.8066 13.664 88.9426 13.664C90.0946 13.664 91.0066 14.008 91.6786 14.696C92.3666 15.368 92.7106 16.248 92.7106 17.336V20.336ZM88.9426 15.152C88.3346 15.152 87.8386 15.368 87.4546 15.8C87.0866 16.216 86.9026 16.768 86.9026 17.456V19.064C86.9026 19.128 86.9346 19.16 86.9986 19.16H90.9346C90.9986 19.16 91.0306 19.128 91.0306 19.064V17.456C91.0306 16.768 90.8386 16.216 90.4546 15.8C90.0706 15.368 89.5666 15.152 88.9426 15.152Z" fill="white"/>
<path d="M99.34 13.736C99.74 13.736 100.084 13.824 100.372 14C100.484 14.064 100.524 14.168 100.492 14.312L100.204 15.56C100.188 15.704 100.092 15.752 99.916 15.704C99.724 15.608 99.484 15.56 99.196 15.56C99.068 15.56 98.972 15.568 98.908 15.584C98.332 15.616 97.86 15.92 97.492 16.496C97.124 17.056 96.94 17.744 96.94 18.56V25.76C96.94 25.92 96.86 26 96.7 26H95.476C95.316 26 95.236 25.92 95.236 25.76V14.096C95.236 13.936 95.316 13.856 95.476 13.856H96.7C96.86 13.856 96.94 13.936 96.94 14.096V15.536C96.94 15.584 96.948 15.608 96.964 15.608C96.996 15.608 97.028 15.592 97.06 15.56C97.524 14.344 98.284 13.736 99.34 13.736Z" fill="white"/>
<path d="M109.398 20.336C109.398 20.496 109.318 20.576 109.158 20.576H103.686C103.622 20.576 103.59 20.608 103.59 20.672V22.424C103.59 23.096 103.774 23.648 104.142 24.08C104.526 24.496 105.022 24.704 105.63 24.704C106.142 24.704 106.574 24.552 106.926 24.248C107.294 23.928 107.534 23.52 107.646 23.024C107.694 22.88 107.782 22.808 107.91 22.808L109.11 22.856C109.174 22.856 109.23 22.88 109.278 22.928C109.326 22.976 109.342 23.04 109.326 23.12C109.198 24.064 108.806 24.816 108.15 25.376C107.51 25.92 106.67 26.192 105.63 26.192C104.494 26.192 103.582 25.856 102.894 25.184C102.222 24.512 101.886 23.624 101.886 22.52V17.336C101.886 16.248 102.222 15.368 102.894 14.696C103.582 14.008 104.494 13.664 105.63 13.664C106.782 13.664 107.694 14.008 108.366 14.696C109.054 15.368 109.398 16.248 109.398 17.336V20.336ZM105.63 15.152C105.022 15.152 104.526 15.368 104.142 15.8C103.774 16.216 103.59 16.768 103.59 17.456V19.064C103.59 19.128 103.622 19.16 103.686 19.16H107.622C107.686 19.16 107.718 19.128 107.718 19.064V17.456C107.718 16.768 107.526 16.216 107.142 15.8C106.758 15.368 106.254 15.152 105.63 15.152Z" fill="white"/>
<path d="M50.2725 8C49.2225 8 48.2725 8.805 48.2725 10.05C48.2725 10.845 48.885 11.78 50.1075 12.8575C50.2025 12.94 50.345 12.94 50.44 12.8575C51.66 11.78 52.2725 10.845 52.2725 10.05C52.2725 8.805 51.3225 8 50.2725 8ZM49.83 10.665L49.4775 10.3125C49.4543 10.2894 49.436 10.2619 49.4234 10.2316C49.4109 10.2014 49.4045 10.169 49.4045 10.1363C49.4045 10.1035 49.4109 10.0711 49.4234 10.0409C49.436 10.0106 49.4543 9.98315 49.4775 9.96C49.5006 9.93685 49.5281 9.91849 49.5583 9.90597C49.5886 9.89344 49.621 9.887 49.6537 9.887C49.6864 9.887 49.7189 9.89344 49.7491 9.90597C49.7793 9.91849 49.8068 9.93685 49.83 9.96L50.0075 10.1375L50.715 9.43C50.7381 9.40685 50.7656 9.38849 50.7958 9.37597C50.8261 9.36344 50.8585 9.357 50.8912 9.357C50.9239 9.357 50.9564 9.36344 50.9866 9.37597C51.0168 9.38849 51.0443 9.40685 51.0675 9.43C51.0906 9.45315 51.109 9.48062 51.1215 9.51086C51.134 9.54111 51.1405 9.57352 51.1405 9.60625C51.1405 9.63898 51.134 9.6714 51.1215 9.70164C51.109 9.73188 51.0906 9.75935 51.0675 9.7825L50.1825 10.6675C50.0875 10.7625 49.9275 10.7625 49.83 10.665Z" fill="white"/>
</svg>
