<svg width="34" height="34" viewBox="0 0 34 34" fill="none" xmlns="http://www.w3.org/2000/svg">
<circle cx="17" cy="17" r="16" fill="#BE185D" stroke="white" stroke-width="2"/>
<path d="M14.4503 16.15H19.5503C20.0178 16.15 20.4003 16.5325 20.4003 17C20.4003 17.4675 20.0178 17.85 19.5503 17.85H14.4503C13.9828 17.85 13.6003 17.4675 13.6003 17C13.6003 16.5325 13.9828 16.15 14.4503 16.15ZM24.5908 17C25.1178 17 25.5003 16.4985 25.3813 15.9885C25.1537 15.0647 24.6231 14.2437 23.8744 13.6567C23.1256 13.0697 22.2017 12.7505 21.2503 12.75H18.6578C18.2158 12.75 17.8503 13.1155 17.8503 13.5575C17.8503 13.9995 18.2158 14.365 18.6578 14.365H21.2503C22.4828 14.365 23.5198 15.215 23.8088 16.354C23.9023 16.728 24.2083 17 24.5908 17ZM10.1663 16.473C10.4043 15.2235 11.5773 14.365 12.8523 14.365H15.3428C15.7848 14.365 16.1503 13.9995 16.1503 13.5575C16.1503 13.1155 15.7848 12.75 15.3428 12.75H12.9373C10.7188 12.75 8.73828 14.3735 8.52578 16.5835C8.46702 17.1736 8.53252 17.7695 8.71806 18.3327C8.90361 18.8959 9.20509 19.4141 9.60307 19.8537C10.0011 20.2933 10.4867 20.6447 11.0288 20.8852C11.5708 21.1257 12.1573 21.25 12.7503 21.25H15.3428C15.7848 21.25 16.1503 20.8845 16.1503 20.4425C16.1503 20.0005 15.7848 19.635 15.3428 19.635H12.7503C12.3599 19.6338 11.9745 19.5461 11.622 19.3783C11.2695 19.2104 10.9586 18.9666 10.7115 18.6643C10.4644 18.362 10.2874 18.0087 10.1931 17.6298C10.0989 17.2509 10.0897 16.8558 10.1663 16.473ZM22.1003 17C21.6328 17 21.2503 17.3825 21.2503 17.85V19.55H19.5503C19.0828 19.55 18.7003 19.9325 18.7003 20.4C18.7003 20.8675 19.0828 21.25 19.5503 21.25H21.2503V22.95C21.2503 23.4175 21.6328 23.8 22.1003 23.8C22.5678 23.8 22.9503 23.4175 22.9503 22.95V21.25H24.6503C25.1178 21.25 25.5003 20.8675 25.5003 20.4C25.5003 19.9325 25.1178 19.55 24.6503 19.55H22.9503V17.85C22.9503 17.3825 22.5678 17 22.1003 17Z" fill="white"/>
</svg>
